HIERARCHY
ROOT Hips
{
 OFFSET 0.000000 0.000000 0.000000
 CHANNELS 6 Xposition Yposition Zposition Yrotation Xrotation Zrotation
 JOINT Chest
 {
  OFFSET 0.000000 9.581000 -0.001100
  CHANNELS 3 Yrotation Xrotation Zrotation
  JOINT Chest2
  {
   OFFSET 0.000000 9.561100 0.002200
   CHANNELS 3 Yrotation Xrotation Zrotation
   JOINT Chest3
   {
    OFFSET 0.000000 9.521100 0.000000
    CHANNELS 3 Yrotation Xrotation Zrotation
    JOINT Chest4
    {
     OFFSET 0.000000 9.511400 0.000000
     CHANNELS 3 Yrotation Xrotation Zrotation
     JOINT Neck
     {
      OFFSET 0.000000 14.375100 0.000000
      CHANNELS 3 Yrotation Xrotation Zrotation
      JOINT Head
      {
       OFFSET 0.000000 8.901200 0.004600
       CHANNELS 3 Yrotation Xrotation Zrotation
       End Site
       {
        OFFSET 0.000000 16.962200 0.002400
       }
      }
     }
     JOINT RightCollar
     {
      OFFSET -2.920100 9.518800 0.000000
      CHANNELS 3 Yrotation Xrotation Zrotation
      JOINT RightShoulder
      {
       OFFSET -13.664500 0.000000 0.000000
       CHANNELS 3 Yrotation Xrotation Zrotation
       JOINT RightElbow
       {
        OFFSET 0.000000 -29.999200 0.000000
        CHANNELS 3 Yrotation Xrotation Zrotation
        JOINT RightWrist
        {
         OFFSET 0.000000 -24.253600 0.000000
         CHANNELS 3 Yrotation Xrotation Zrotation
         End Site
         {
          OFFSET 0.000000 -17.918900 0.000000
         }
        }
       }
      }
     }
     JOINT LeftCollar
     {
      OFFSET 2.920100 9.518800 0.000000
      CHANNELS 3 Yrotation Xrotation Zrotation
      JOINT LeftShoulder
      {
       OFFSET 13.664500 0.000000 0.000000
       CHANNELS 3 Yrotation Xrotation Zrotation
       JOINT LeftElbow
       {
        OFFSET 0.000000 -29.999200 0.000000
        CHANNELS 3 Yrotation Xrotation Zrotation
        JOINT LeftWrist
        {
         OFFSET 0.000000 -24.253600 0.000000
         CHANNELS 3 Yrotation Xrotation Zrotation
         End Site
         {
          OFFSET 0.000000 -17.918900 0.000000
         }
        }
       }
      }
     }
    }
   }
  }
 }
 JOINT RightHip
 {
  OFFSET -7.797300 0.005300 0.000500
  CHANNELS 3 Yrotation Xrotation Zrotation
  JOINT RightKnee
  {
   OFFSET 0.000000 -40.663400 -0.000500
   CHANNELS 3 Yrotation Xrotation Zrotation
   JOINT RightAnkle
   {
    OFFSET 0.000000 -39.523700 -0.000900
    CHANNELS 3 Yrotation Xrotation Zrotation
    JOINT RightToe
    {
     OFFSET 0.000000 -6.418000 14.485300
     CHANNELS 3 Yrotation Xrotation Zrotation
     End Site
     {
      OFFSET 0.000000 -1.465200 6.326400
     }
    }
   }
  }
 }
 JOINT LeftHip
 {
  OFFSET 7.797300 0.005300 0.000500
  CHANNELS 3 Yrotation Xrotation Zrotation
  JOINT LeftKnee
  {
   OFFSET 0.000000 -40.663400 -0.000500
   CHANNELS 3 Yrotation Xrotation Zrotation
   JOINT LeftAnkle
   {
    OFFSET 0.000000 -39.523700 -0.000900
    CHANNELS 3 Yrotation Xrotation Zrotation
    JOINT LeftToe
    {
     OFFSET 0.000000 -6.418000 14.485300
     CHANNELS 3 Yrotation Xrotation Zrotation
     End Site
     {
      OFFSET 0.000000 -1.465200 6.326400
     }
    }
   }
  }
 }
}
MOTION
Frames: 5
Frame Time: 0.008333
0.000000 86.422400 0.000000 0.000000 -5.767877 0.000000 0.000000 11.653817 0.000000 0.000000 -5.885947 0.000000 0.000000 -0.000000 0.000000 0.000000 -0.000000 0.000000 0.000000 12.528835 0.000000 0.000000 0.711642 0.000000 0.000000 -0.000000 0.000000 0.000000 0.000000 -90.000000 0.000000 -2.309062 0.000000 0.000000 2.309062 0.000000 0.000000 -0.000000 0.000000 0.000000 -0.000000 90.000000 0.000000 -2.309062 0.000000 0.000000 2.309062 0.000000 0.000000 8.520406 0.000000 0.000000 1.905762 0.000000 -0.000000 -4.658285 0.000000 0.000000 -0.000000 0.000000 0.000000 8.520406 0.000000 0.000000 1.905762 0.000000 -0.000000 -4.658285 0.000000 0.000000 -0.000000 0.000000
-14.868145 126.894909 14.656938 -178.369894 -48.732792 -5.221583 1.240709 26.122646 2.219852 0.126744 4.350176 0.333946 0.221870 6.910999 0.504414 0.924670 21.469349 1.757301 -3.957210 14.382083 -6.220735 -2.820841 -10.478602 -5.795297 2.964627 1.010621 4.165161 -7.284413 -22.859052 -9.443855 -71.587976 -44.758624 110.000251 -16.867725 -5.688287 5.903790 -11.475690 -1.908224 -1.569429 3.795448 -26.268830 9.436705 61.149018 -48.107162 -96.058615 12.034506 -15.279238 -15.028675 -13.385656 -10.404622 -1.273232 -169.153381 81.441071 -161.156547 7.350469 -12.513080 -2.451579 0.002112 0.002030 0.000936 9.601818 -13.953782 -7.706967 4.296742 65.693907 -10.531418 7.074499 -4.969790 14.850319 -0.000203 0.005105 -0.000090
-14.867859 126.894181 14.659660 -178.369448 -48.741253 -5.227621 1.245772 26.127214 2.221037 0.132994 4.347824 0.318237 0.223194 6.920973 0.512975 0.929593 21.473674 1.759493 -3.925562 14.347155 -6.233813 -2.787938 -10.521958 -5.804561 2.975750 1.017289 4.159716 -7.251021 -22.865521 -9.430839 -71.626400 -45.181479 110.021539 -16.592827 -5.591467 5.860525 -11.444431 -1.845303 -1.578601 3.748127 -26.272124 9.376914 61.229166 -48.613739 -95.970389 11.737440 -15.353771 -14.566805 -13.384164 -10.397705 -1.269747 -169.132655 81.441639 -161.133558 7.350210 -12.508312 -2.453058 0.002067 0.001634 0.000916 9.598492 -13.951085 -7.698556 4.303969 65.695205 -10.524614 7.072411 -4.963598 14.846476 0.000127 0.005052 0.000056
-14.867994 126.894510 14.661778 -178.370416 -48.760890 -5.230447 1.252088 26.142998 2.220045 0.139223 4.348903 0.308647 0.221152 6.926042 0.522418 0.930808 21.474254 1.762611 -3.911917 14.332945 -6.238703 -2.747262 -10.579502 -5.815527 2.991737 1.032067 4.143101 -7.218239 -22.869662 -9.421315 -71.687487 -45.667736 110.063402 -16.287103 -5.517847 5.797426 -11.423998 -1.801720 -1.593862 3.716130 -26.245851 9.315114 61.317207 -49.167027 -95.883735 11.408192 -15.447490 -14.064456 -13.375305 -10.382587 -1.273658 -169.161318 81.436531 -161.157619 7.346806 -12.504503 -2.449292 0.000986 0.000460 0.000437 9.598267 -13.934316 -7.691453 4.314836 65.693144 -10.512648 7.069971 -4.957758 14.841419 0.000487 0.004745 0.000216
-14.868022 126.895138 14.663917 -178.374627 -48.784770 -5.231589 1.273851 26.152178 2.209063 0.131150 4.361855 0.325272 0.222593 6.929776 0.522076 0.942937 21.488122 1.751689 -3.903143 14.305325 -6.222615 -2.704881 -10.647118 -5.817873 3.000487 1.031741 4.141951 -7.104777 -22.851542 -9.454122 -71.862968 -46.227779 110.143835 -15.942052 -5.476531 5.697703 -11.422043 -1.780973 -1.583208 3.694820 -26.202005 9.250649 61.411169 -49.760309 -95.801068 11.047847 -15.549435 -13.529887 -13.368213 -10.363948 -1.280220 -169.214630 81.433296 -161.205879 7.341595 -12.493146 -2.446311 0.001649 0.000247 0.000731 9.600259 -13.912298 -7.682849 4.322729 65.690188 -10.506099 7.073908 -4.955297 14.839386 0.000470 0.004119 0.000208
